<svg width="2720" height="595" viewBox="0 0 2720 595" fill="none" xmlns="http://www.w3.org/2000/svg">
<g clip-path="url(#clip0_34_221)">
<path d="M776.567 128.451C802.029 128.322 827.371 127.98 852.989 128.495C887.638 129.193 913.394 148.2 906.548 185.272C904.114 198.459 895.559 204.965 884.888 211.789C914.479 224.086 922.401 243.953 911.081 274.274C888.769 312.862 817.296 302.553 776.627 302.391L776.567 128.451ZM870.966 233.819C855.154 225.065 830.733 227.792 812.972 228.232C812.742 242.529 812.664 256.828 812.737 271.126C830.77 271.352 857.672 274.079 872.308 264.607C879.434 254.982 883.705 240.874 870.966 233.819ZM864.888 194.464C894.7 156.08 832.3 159.901 812.849 160.219L812.645 199.717C827.466 199.827 852.99 201.788 864.888 194.464Z" fill="#002756"/>
<path d="M2429.1 128.437C2468.44 128.686 2541.73 118.32 2559.06 159.879C2572.9 193.082 2560.37 222.624 2528.75 236.964C2543.03 258.622 2557.02 280.466 2570.73 302.49L2542.35 302.544L2528.4 302.453L2490.74 242.448C2482.67 242.293 2474.1 242.409 2465.98 242.397L2465.97 302.426L2429.01 302.443L2429.1 128.437ZM2520.76 203.244C2547.3 157.94 2492.36 161.534 2466.08 161.837L2466.14 210.895C2485.25 211.18 2505.55 214.193 2520.76 203.244Z" fill="#399524"/>
<path d="M944.92 128.452C975.317 128.282 1013.53 125.504 1042.57 132.601C1080.41 141.847 1092.82 197.595 1064.72 223.351C1057.75 229.747 1052.77 232.213 1044.34 236.191C1058.47 257.851 1072.43 280.536 1086.29 302.44L1057.31 302.414L1044.61 302.427C1032.14 282.899 1019.98 262.268 1007.95 242.396L980.854 242.258L980.788 302.403L944.903 302.421L944.92 128.452ZM1036 168.973C1020.98 158.63 998.175 161.265 980.871 161.61L980.867 210.73C998.373 211.103 1021.55 213.909 1035.71 204.324C1044.2 193.577 1049.2 178.061 1036 168.973Z" fill="#002756"/>
<path d="M1258.99 126.066C1259.6 126.011 1260.22 125.968 1260.84 125.937C1291.52 124.309 1309.52 133.56 1331.45 153.36C1323.06 161.72 1315.5 170.193 1307.58 178.993C1237.68 113.309 1179.68 228.982 1246.18 266.601C1261.32 275.168 1284.08 269.416 1299.95 263.53L1299.96 235.969L1267.88 235.95C1268.1 225.842 1265.28 214.444 1269.8 206.742C1275.71 203.396 1276.69 204.631 1284.51 204.661L1335.74 204.614L1335.79 280.014C1317.08 292.899 1304.66 300.203 1281.33 303.898C1196.09 317.408 1151.63 221.799 1198.84 156.871C1212.87 137.576 1235.39 128.818 1258.99 126.066Z" fill="#002756"/>
<path d="M1368.94 128.502L1405.64 128.454L1405.28 197.513L1474.94 197.414L1475 128.481L1511.52 128.484C1511.61 147.676 1514.48 295.458 1509.47 302.371L1474.96 302.496L1474.94 230.366L1405.5 230.256L1405.32 302.378L1368.97 302.497L1368.94 128.502Z" fill="#002756"/>
<path d="M2596.25 128.5L2716.79 128.46V161.731L2633.4 161.843L2633.45 198.822L2706.95 198.768L2706.89 230.885C2682.71 230.764 2657.48 230.307 2633.4 231.077C2633.83 243.535 2633.61 256.272 2633.55 268.761L2719.22 268.767L2719.24 302.469L2596.35 302.423L2596.25 128.5Z" fill="#399524"/>
<path d="M1911.91 128.507L1949.37 128.481C1949.33 165.006 1947.35 203.158 1950.61 239.306C1952.09 255.694 1967.35 269.549 1983.89 269.555C2027.74 269.574 2022.06 222.812 2022.02 192.23C2021.98 170.805 2021.82 149.707 2022.21 128.502L2058.79 128.517L2058.72 161.112C2058.56 198.669 2066 257.487 2039.61 283.164C2026.22 296.95 2005.81 305.196 1986.7 304.564C1913.81 302.156 1908.68 246.034 1911.71 188.168C1912.66 170.085 1911.84 146.113 1911.91 128.507Z" fill="#399524"/>
<path d="M2354.92 128.491L2391.97 128.451V163.97C2391.96 200.068 2399.23 256.418 2373.18 283.536C2347.77 309.962 2299.15 311.404 2270.71 288.705C2241.13 265.084 2246.53 226.736 2246.12 193.263C2246.06 171.945 2246.26 150.06 2246.1 128.454L2283.01 128.511C2283.4 164.766 2280.83 203.388 2284.44 239.299C2287.96 268.435 2322.37 279.614 2342.92 260.533C2358.9 245.697 2355.02 213.862 2355.13 193.791C2355.26 172.084 2354.96 150.179 2354.92 128.491Z" fill="#399524"/>
<path d="M1767.51 128.475L1886.7 128.552L1886.54 161.838C1858.91 161.595 1831.28 161.71 1803.64 162.182L1803.86 200.6L1873.62 200.614L1873.52 223.595C1873.46 228.814 1874.24 229.082 1871.82 233.315C1860.29 235.122 1817.41 234.215 1803.73 234.199C1804.02 256.792 1803.82 279.797 1803.85 302.427L1767.36 302.452L1767.51 128.475Z" fill="#399524"/>
<path d="M1536.71 128.464L1673.11 128.481L1673.24 161.82C1658.39 161.736 1637.08 161.008 1622.75 162.275C1622.31 192.481 1622.66 223.491 1622.64 253.759L1622.38 302.414L1585.98 302.481L1586 161.876C1569.81 161.645 1552.98 161.846 1536.74 161.843L1536.71 128.464Z" fill="#002756"/>
<path d="M2083.94 128.466L2221.88 128.512C2222.16 139.219 2221.83 150.96 2221.7 161.754L2170.95 162.003L2170.94 250.46L2170.87 302.526L2134.67 302.427V161.947C2117.98 161.625 2100.52 161.806 2083.76 161.748L2083.94 128.466Z" fill="#399524"/>
<path d="M1112.94 128.488L1149.56 128.464L1149.59 299.574L1148.07 301.836C1141.36 303.059 1120.86 302.444 1113.03 302.376L1112.94 128.488Z" fill="#002756"/>
<path d="M1776.01 370.394C1796.69 370.624 1838.69 365.324 1848.37 385.864C1858.23 406.749 1849.15 420.624 1831.42 429.875C1839.44 441.409 1847.41 454.02 1855.15 465.813L1835.41 466.014C1828.44 463.73 1816.07 440.102 1811.37 432.245L1794.75 432.187L1794.99 466.014L1775.35 466C1775.22 447.685 1773.8 385.017 1776.01 370.394ZM1826.78 413.458C1845.2 386.008 1811.3 387.013 1794.79 387.142L1794.62 415.914C1803.67 416.043 1818.9 417.178 1826.78 413.458Z" fill="#002756"/>
<path d="M1482.54 370.265L1502.15 370.293C1502.17 400.96 1503.07 435.707 1501.76 465.928H1484.37C1469.12 445.646 1455.14 424.187 1439.47 403.546C1439.77 424.173 1439.62 445.201 1439.66 465.871L1420.66 466.029C1420.49 434.112 1420.51 402.21 1420.7 370.308L1438.66 370.451C1453.37 389.01 1467.44 412.107 1482.51 429.832L1482.54 370.265Z" fill="#002756"/>
<path d="M1986 370.036C2008.23 368.283 2016.13 369.763 2033.21 383.768L2020.64 397.399C2003.57 382.992 1981.76 380.651 1971.53 403.863C1967.74 412.567 1967.49 422.406 1970.87 431.269C1982.06 459.954 2027.44 452.212 2015.97 430.264C2010.86 427.448 2005.86 430.278 1998.02 428.684C1995.8 425.38 1996.56 417.551 1996.6 413.127L2035.37 413.027L2035.33 455.142C2017.25 467.093 1995.74 472.494 1975.31 462.755C1963.41 457.095 1954.34 446.797 1950.23 434.271C1940.2 403.906 1956.86 379.315 1986 370.036Z" fill="#002756"/>
<path d="M2304.25 421.487H2577.32C2618.28 421.487 2677.38 419.505 2716.72 421.889C2720.1 424.604 2719.16 425.954 2719.87 431.513C2637.39 433.078 2550.13 431.613 2467.28 431.613L2365.35 431.685C2347.63 431.699 2324.74 432.346 2307.6 431.297C2304.08 428.424 2305.04 427.218 2304.25 421.487Z" fill="#399524"/>
<path d="M1272.67 370.48C1285.86 370.552 1310.08 365.783 1318.66 375.752C1318.97 381.641 1319.56 379.4 1316.59 384.255C1307.45 389.857 1283.74 387.286 1271.44 387.2L1271.33 408.789C1283.87 409.047 1305.07 404.178 1313.18 413.859C1313.76 419.533 1314.19 417.407 1311.99 422.234C1304.21 428.582 1282.8 425.939 1271.35 425.853L1271.35 446.882C1274.99 449.884 1312.34 448.577 1319.69 448.534L1319.35 465.943L1252.6 466L1252.5 370.509L1272.67 370.48Z" fill="#002756"/>
<path d="M1612.21 370.495C1623.86 370.351 1668.11 367.708 1673.5 373.324C1673.77 377.863 1674.4 380.334 1671.66 384.04C1663.08 390.116 1638.37 387.372 1626.6 387.171L1626.56 408.688C1636.36 408.818 1679.87 402.727 1667.58 423.928C1659.65 428.367 1639.24 423.771 1627.91 426.5L1626.63 428.956L1626.56 448.534L1673.89 448.635L1673.95 465.986L1607.55 465.972C1607.49 453.461 1606.06 377.476 1609.04 371.199L1612.21 370.495Z" fill="#002756"/>
<path d="M775.7 421.587C873.201 420.654 1066.32 421.946 1170.78 421.673C1171.65 422.291 1172.52 422.894 1173.39 423.512L1174.67 431.613L911.598 431.685C874.97 431.699 813.911 433.696 778.792 431.254C775.648 428.439 776.432 426.773 775.7 421.587Z" fill="#399524"/>
<path d="M2135.36 370.525C2139.56 370.281 2142.03 370.252 2146.24 370.482C2156.37 375.94 2166.23 398.391 2172.12 409.264C2179.32 396.495 2187.89 382.892 2195.48 370.209L2217.72 370.712C2210.22 383.898 2199.36 399.942 2191.06 412.999L2181.95 426.516L2182 465.988L2161.89 465.973L2161.97 427.435C2150.92 409.796 2138.09 390.117 2128.01 372.162L2128.8 370.956L2135.36 370.525Z" fill="#002756"/>
<path d="M643.551 305.803C656.793 360.598 643.404 418.663 614.724 466.407C577.871 527.742 506.068 567.961 437.71 584.097C383.182 596.967 323.691 598.146 269.063 584.664C256.741 581.622 241.955 577.252 230.791 571.125C247.098 574.428 260.826 577.18 277.564 578.25C346.321 582.647 411.136 558.699 467.558 520.95C516.493 488.207 559.648 443.508 597.48 398.752C599.391 396.792 603.195 392.633 603.905 390.19C601.399 391.222 598.566 394.987 596.64 397.204C569.535 424.279 541.524 447.352 511.325 470.901C488.654 488.578 464.161 508.032 439.506 522.656C440.796 484.246 454.438 449.429 483.331 423.769C541.386 372.202 593.424 373.582 643.551 305.803Z" fill="#309025"/>
<path d="M598.387 177.229C599.122 173.32 593.26 164.539 591.235 160.786C588.655 156.01 590.043 158.852 590.239 154.2C586.753 150.473 581.577 146.302 581.691 141.621C584.867 137.589 586.5 138.85 591.374 137.62C601.138 153.932 604.983 163.239 612.911 179.412L614.062 179.647C617.213 185.598 620.773 197.287 622.699 203.801C632.806 237.931 635.403 271.278 628.716 306.297C624.202 311.76 619.115 316.741 614.119 321.782C626.61 266.753 618.593 228.738 598.387 177.229Z" fill="#399524"/>
<path d="M291.475 3.06858C370.2 -7.59717 457.066 9.2594 520.909 58.0549C555.614 84.3825 584.033 118.1 604.093 156.762C605.938 160.274 613.766 175.895 614.06 179.647C617.212 185.598 620.771 197.287 622.698 203.801C632.805 237.931 635.402 271.278 628.716 306.296C624.201 311.759 619.114 316.741 614.118 321.781C626.609 266.753 618.591 228.738 598.386 177.23C596.1 174.632 589.365 159.435 586.924 155.135C577.861 139.467 567.166 124.797 555.026 111.371C506.63 57.7672 446.346 30.3504 374.568 26.6819C308.105 23.3477 242.396 42.0062 187.61 79.7678C175.157 88.4652 164.51 97.8656 153.282 108.025L153.283 108.026C143.76 118.293 134.965 127.067 126.066 138.075C100.759 169.714 82.6843 206.507 73.1111 245.869C57.4475 311.977 68.9184 376.356 104.435 433.893L76.9744 460.381C41.8902 407.104 18.0901 359.135 18.864 293.267C19.607 230.073 52.0869 148.148 97.3123 104.043V104.042C103.828 95.4893 117.242 83.4892 125.745 76.3342C172.841 36.5682 230.359 11.1409 291.475 3.06858ZM94.0818 115.942C95.8456 116.175 97.5132 116.28 99.1092 116.283C97.2849 116.279 95.3671 116.142 93.3191 115.833L94.0818 115.942ZM132.96 109.807C119.21 110.676 111.345 116.044 99.947 116.275C111.346 116.045 119.21 110.677 132.961 109.808L132.96 109.807ZM90.1453 115.238C90.6922 115.36 91.2297 115.47 91.7586 115.57C91.2297 115.47 90.6922 115.36 90.1453 115.238ZM151.96 107.815C149.038 108.681 148.481 111.343 147.168 111.825C146.471 112.081 145.335 112.015 143.98 111.793C145.335 112.015 146.471 112.081 147.169 111.825C148.524 111.327 149.074 108.507 152.25 107.737L151.96 107.815ZM140.761 111.123C141.298 111.248 141.828 111.367 142.342 111.477C141.828 111.367 141.298 111.248 140.761 111.123ZM137.593 110.398C138.394 110.571 139.219 110.765 140.037 110.956C139.219 110.765 138.394 110.571 137.593 110.398ZM133.326 109.795C133.928 109.791 134.623 109.86 135.376 109.976C134.623 109.86 133.928 109.791 133.326 109.795Z" fill="url(#paint0_linear_34_221)"/>
<path d="M216.965 342.149C223.202 346.918 233.068 356.11 239.066 361.433L279.208 397.107C328.221 441.557 377.745 485.45 427.75 528.778C418.508 533 407.805 539.123 398.734 544.015L217.825 380.767L211.298 387.21C156.692 440.012 102.855 493.604 49.8057 547.969L0 547.959C8.26203 539.321 23.5027 526.229 32.9306 517.472L90.1231 463.436C131.961 423.865 175.027 380.495 216.965 342.149Z" fill="#002756"/>
<path d="M244.135 351.883C257.522 354.323 296.934 367.592 311.134 372.198C360.037 388.002 408.711 404.514 457.14 421.731C440.502 440.918 433.007 454.156 427.17 478.695C424.557 491.003 424.378 497.957 424.296 510.642C412.009 500.97 397.273 487.598 385.353 477.17C361.816 456.613 338.451 435.865 315.249 414.928C292.944 394.876 265.19 372.034 244.135 351.883Z" fill="#002756"/>
<path d="M401.069 161.334C415.414 159.32 434.656 162.934 447.751 168.915C476.146 181.889 492.001 199.561 503.112 228.055L414.605 227.945L312.693 227.331C316.784 217.003 322.449 207.369 329.487 198.771C347.774 176.561 372.609 164.05 401.069 161.334Z" fill="#FCAA02"/>
<path d="M496.335 300.722L568.359 301.182C563.126 311.469 533.017 361.038 521.538 361.737L446.771 361.671C462.61 341.334 479.95 320.723 496.335 300.722Z" fill="#007DBF"/>
<path d="M431.807 300.556C450.774 300.485 470.34 300.368 488.556 300.938C480.171 311.505 467.223 327.284 458.12 337.158C456.307 340.879 441.735 357.552 438.281 361.721C412.581 361.122 387.076 361.904 361.352 360.702C371.597 347.529 396.383 319.586 407.552 307.849C408.023 307.159 408.473 306.52 408.915 305.911C409.136 305.607 409.356 305.309 409.575 305.017C410.014 304.43 410.454 303.862 410.909 303.287C411.592 302.425 412.309 301.55 413.111 300.584L417.724 300.588C422.36 300.587 427.065 300.573 431.807 300.556Z" fill="#006CAE"/>
<path d="M330.385 299.653C348.968 299.858 367.932 300.311 386.665 300.509C391.348 300.558 396.017 300.592 400.662 300.602C402.21 300.605 403.756 300.605 405.298 300.603C403.206 303.014 401.113 305.444 399.012 307.874C396.91 310.305 394.8 312.736 392.673 315.152C388.951 319.38 385.179 323.561 381.316 327.604C380.764 328.182 380.21 328.757 379.654 329.329C376.519 333.95 357.057 355.333 352.183 360.881C336.426 360.717 318.097 361.146 302.584 359.288C298.816 358.837 287.959 355.266 283.892 353.965C297.131 338.653 310.456 323.41 323.854 308.24C326.115 305.492 328.556 302.688 330.385 299.653Z" fill="#0168AA"/>
<path d="M170.011 298.92C193.4 298.906 216.789 299.012 240.178 299.24C221.231 319.369 201.933 339.165 182.293 358.618C182.13 358.773 180.134 359.998 180.134 359.998C160.77 360.462 131.874 360.125 113.524 360.089C131.544 339.74 151.46 318.988 170.011 298.92Z" fill="#002B5B"/>
<path d="M380.145 243.247C404.678 242.95 429.954 243.352 454.544 243.464C442.42 259.021 423.61 279.374 410.287 295.051C404.857 295.437 394.203 294.957 388.399 294.917C370.887 294.796 353.514 294.101 335.961 294.07C350.591 277.04 365.319 260.099 380.145 243.247Z" fill="#0080C3"/>
<path d="M462.161 243.464C486.637 243.416 511.121 243.545 535.597 243.855L492.874 295.376C477.477 295.243 462.088 295.215 446.698 295.289C437.938 295.287 427.546 295.642 418.957 294.581C432.811 277.548 448.005 260.493 462.161 243.464Z" fill="#0091D4"/>
<path d="M300.978 242.681C324.85 242.61 348.713 242.698 372.585 242.945C358.061 260.052 342.639 276.831 327.903 294.134C303.58 294.178 279.256 293.81 254.943 293.032C269.983 275.972 285.331 259.186 300.978 242.681Z" fill="#006CAE"/>
<path d="M248.707 242.921C257.958 241.951 282.641 242.669 293.011 242.716C278.26 259.63 260.845 276.12 246.393 293.346C238.551 293.362 230.586 293.194 222.733 293.098C207.381 292.462 191.315 292.633 175.895 292.592C199.823 267.589 213.265 247.748 248.707 242.921Z" fill="#006CAE"/>
<path d="M248.989 298.953L322.939 299.797L283.743 343.134L275.521 351.776C256.969 347.036 235.35 340.046 216.63 334.655C226.988 324.315 239.34 310.132 248.989 298.953Z" fill="#00437C"/>
<path d="M543.14 243.633L588.124 243.813C585.267 256.204 575.127 282.534 570.506 295.413C562.734 295.264 554.97 295.162 547.198 295.107C532.625 295.583 516.256 295.192 501.577 294.954C512.566 279.797 530.943 258.261 543.14 243.633Z" fill="#009FDF"/>
<path d="M441.49 367.554C467.019 367.487 492.54 367.585 518.069 367.847C503.504 377.852 489.968 388.172 477.142 400.369C472.448 405.104 468.676 409.312 464.3 414.354C448.225 409.141 432.224 403.703 416.304 398.043C424.46 387.738 433.285 378.26 441.49 367.554Z" fill="#003165"/>
<path d="M131.861 367.751C139.144 366.793 164.502 368.06 172.768 368.342C159.78 380.457 146.243 393.112 133.848 405.804L118.987 419.984C113.7 410.66 102.219 386.891 108.944 376.623C113.255 370.042 124.683 368.993 131.861 367.751Z" fill="#002756"/>
<path d="M331.16 367.844C362.592 366.449 401.477 367.487 433.546 367.557L420.508 382.635L409.519 395.551L364.331 379.662C354.468 376.272 340.426 371.904 331.16 367.844Z" fill="#002756"/>
<path d="M277.972 116.725C281.529 118.376 297.752 129.811 302.127 132.886C318.319 144.271 335.43 155.47 351.358 167.113C346.534 169.919 342.598 172.806 338.084 176.048C332.565 180.462 329.462 183.385 325.038 188.783C309.983 164.491 293.544 140.8 277.972 116.725Z" fill="#FCAA02"/>
<path d="M420.001 71.6797C422.508 76.4222 430.664 145.06 431.831 153.849C424.712 152.512 419.765 151.866 412.531 151.207C406.604 151.201 403.347 151.395 397.452 152.096C405.543 126.662 413.062 97.6155 420.001 71.6797Z" fill="#FCAA02"/>
<path d="M491.576 91.5713L492.303 92.4013C485.429 116.409 476.203 144.666 468.268 168.431C461.59 164.759 456.952 162.319 449.964 159.35C446.217 157.827 441.196 156.266 437.285 154.924C455.818 134.186 473.925 113.063 491.576 91.5713Z" fill="#FCAA02"/>
<path d="M548.161 133.499L548.242 133.527C548.373 135.271 503.781 190.216 498.638 196.599C495.152 191.94 491.87 188.604 487.861 184.405C483.967 180.263 479.117 176.577 474.668 172.978C499.291 160.401 523.783 146.585 548.161 133.499Z" fill="#FCAA02"/>
<path d="M235.252 171.88L321.282 192.561C313.991 201.569 311.142 206.596 305.733 216.939C304.555 219.884 302.931 225.743 299.559 226.1C299.267 223.353 301.426 220.205 302.83 217.647L257.705 187.586C252.579 184.17 239.265 175.717 235.252 171.88Z" fill="#FCAA02"/>
<path d="M348.9 83.9492C351.546 85.792 385.247 143.986 390.382 152.4L381.614 154.359C373.703 156.508 366.78 159.559 359.252 162.699C357.66 137.578 351.415 109.07 348.9 83.9492Z" fill="#FCAA02"/>
<path d="M582.271 193.252L582.867 193.421C581.357 195.76 523.302 225.474 515.203 229.723L512.427 222.469C510.264 216.872 506.386 209.481 503.659 203.932L582.271 193.252Z" fill="#FCAA02"/>
<path d="M225.047 490.018C234.547 489.775 244.851 489.934 254.416 489.92C254.529 496.158 255.297 516.409 253.475 520.713C233.555 520.472 221.42 528.09 223.998 502.773C224.449 498.351 223.555 494.601 225.047 490.018Z" fill="#002756"/>
<path d="M187.543 489.952C197.285 489.873 207.028 489.885 216.77 489.988C217.09 495.918 217.873 516.398 215.558 520.727L186.667 520.732C186.484 514.211 185.605 494.792 187.543 489.952Z" fill="#002756"/>
<path d="M231.267 453.589C238.949 453.457 246.635 453.494 254.316 453.699C254.388 461.508 255.918 475.375 253.581 481.989C251.255 484.022 251.837 483.404 248.042 483.513C240.114 483.546 232.185 483.512 224.257 483.411C224.256 475.546 222.544 461.852 225.253 455.467C227.765 453.296 227.323 453.956 231.267 453.589Z" fill="#002756"/>
<path d="M188.583 453.555C195.431 453.699 208.29 452.03 213.641 454.012C218.329 455.747 218.143 479.607 215.074 483.512L186.778 483.492C186.424 477.673 185.018 457.541 188.583 453.555Z" fill="#002756"/>
<path d="M590.337 297.167L590.72 297.573C591.994 301.38 585.43 336.552 584.026 342.36C573.658 349.359 567.249 352.452 555.754 357.644L555.28 357.203C555.297 355.2 558.799 351.079 560.162 349.255C572.343 332.935 581.201 315.306 590.337 297.167Z" fill="#399524"/>
</g>
<defs>
<linearGradient id="paint0_linear_34_221" x1="325.63" y1="0" x2="325.63" y2="460.381" gradientUnits="userSpaceOnUse">
<stop stop-color="#5BA21E"/>
<stop offset="1" stop-color="#027E2B"/>
</linearGradient>
<clipPath id="clip0_34_221">
<rect width="2720" height="595" fill="white"/>
</clipPath>
</defs>
</svg>
